<svg width="600" height="400" viewBox="0 0 600 400" fill="none" xmlns="http://www.w3.org/2000/svg">
  <rect width="600" height="400" rx="20" fill="#F5F7FF"/>
  
  <!-- Background elements -->
  <circle cx="100" cy="300" r="80" fill="#E1E8FF"/>
  <circle cx="500" cy="100" r="60" fill="#E1E8FF"/>
  
  <!-- Document elements -->
  <rect x="150" y="80" width="300" height="240" rx="8" fill="white" stroke="#4F7FFF" stroke-width="2"/>
  <rect x="170" y="110" width="260" height="20" rx="4" fill="#E1E8FF"/>
  <rect x="170" y="140" width="180" height="20" rx="4" fill="#E1E8FF"/>
  <rect x="170" y="170" width="220" height="20" rx="4" fill="#E1E8FF"/>
  <rect x="170" y="200" width="140" height="20" rx="4" fill="#E1E8FF"/>
  <rect x="170" y="230" width="190" height="20" rx="4" fill="#E1E8FF"/>
  <rect x="170" y="260" width="210" height="20" rx="4" fill="#E1E8FF"/>
  
  <!-- Tags/Variables -->
  <rect x="380" y="140" width="40" height="20" rx="10" fill="#4F7FFF"/>
  <rect x="330" y="200" width="40" height="20" rx="10" fill="#4F7FFF"/>
  <rect x="380" y="260" width="40" height="20" rx="10" fill="#4F7FFF"/>
  
  <!-- Decorative elements -->
  <circle cx="450" cy="320" r="30" fill="#4F7FFF" fill-opacity="0.3"/>
  <circle cx="150" cy="70" r="25" fill="#4F7FFF" fill-opacity="0.3"/>
  <circle cx="400" cy="40" r="15" fill="#4F7FFF" fill-opacity="0.5"/>
</svg> 