<svg width="600" height="400" viewBox="0 0 600 400" fill="none" xmlns="http://www.w3.org/2000/svg">
  <rect width="600" height="400" rx="20" fill="#F5F7FF"/>
  
  <!-- Workflow steps -->
  <circle cx="120" cy="120" r="50" fill="#4F7FFF" fill-opacity="0.2" stroke="#4F7FFF" stroke-width="2"/>
  <text x="120" y="125" font-family="Arial" font-size="24" fill="#4F7FFF" text-anchor="middle">1</text>
  
  <circle cx="300" cy="200" r="50" fill="#4F7FFF" fill-opacity="0.2" stroke="#4F7FFF" stroke-width="2"/>
  <text x="300" y="205" font-family="Arial" font-size="24" fill="#4F7FFF" text-anchor="middle">2</text>
  
  <circle cx="480" cy="280" r="50" fill="#4F7FFF" fill-opacity="0.2" stroke="#4F7FFF" stroke-width="2"/>
  <text x="480" y="285" font-family="Arial" font-size="24" fill="#4F7FFF" text-anchor="middle">3</text>
  
  <!-- Connecting lines -->
  <path d="M165 145L255 175" stroke="#4F7FFF" stroke-width="2" stroke-dasharray="6 4"/>
  <path d="M345 225L435 255" stroke="#4F7FFF" stroke-width="2" stroke-dasharray="6 4"/>
  
  <!-- Icons -->
  <rect x="95" y="160" width="50" height="60" rx="4" fill="white" stroke="#4F7FFF" stroke-width="2"/>
  <rect x="105" y="175" width="30" height="5" rx="2" fill="#4F7FFF"/>
  <rect x="105" y="185" width="20" height="5" rx="2" fill="#4F7FFF"/>
  <rect x="105" y="195" width="25" height="5" rx="2" fill="#4F7FFF"/>
  
  <rect x="275" y="240" width="50" height="60" rx="4" fill="white" stroke="#4F7FFF" stroke-width="2"/>
  <rect x="285" y="255" width="30" height="5" rx="2" fill="#4F7FFF"/>
  <rect x="285" y="265" width="20" height="5" rx="2" fill="#4F7FFF"/>
  <rect x="285" y="275" width="25" height="5" rx="2" fill="#4F7FFF"/>
  <rect x="295" y="285" width="10" height="5" rx="2" fill="#4F7FFF"/>
  
  <rect x="455" y="320" width="50" height="60" rx="4" fill="white" stroke="#4F7FFF" stroke-width="2"/>
  <rect x="465" y="335" width="30" height="25" rx="2" fill="#E1E8FF"/>
  <rect x="465" y="365" width="20" height="5" rx="2" fill="#4F7FFF"/>
  
  <!-- Decorative elements -->
  <circle cx="50" cy="350" r="30" fill="#4F7FFF" fill-opacity="0.1"/>
  <circle cx="550" cy="50" r="40" fill="#4F7FFF" fill-opacity="0.1"/>
  <circle cx="500" cy="350" r="20" fill="#4F7FFF" fill-opacity="0.1"/>
  <circle cx="100" cy="50" r="25" fill="#4F7FFF" fill-opacity="0.1"/>
</svg> 